g board_line
v -1.239414 -0.2389453 -0.06810199
v -1.394529 -0.2195202 -0.1357587
v -1.23948 -0.2388934 -0.1359342
v -1.394458 -0.2195726 -0.06792646
v -1.239348 -0.2389971 -0.000269672
v -1.547902 -0.1912373 -0.06773581
v -1.547973 -0.191185 -0.1355681
v -1.696808 -0.1460677 -0.1353859
v -1.394386 -0.2196251 -9.407673E-05
v -1.239281 -0.239049 0.06756268
v -1.394315 -0.2196775 0.06773815
v -1.239215 -0.2391008 0.1353949
v -1.394244 -0.21973 0.1355705
v -1.547831 -0.1912896 9.653892E-05
v -1.547761 -0.1913418 0.06792877
v -1.54769 -0.1913941 0.1357611
v -1.696748 -0.1461168 -0.06755363
v -1.696627 -0.146215 0.06811098
v -1.696567 -0.1462641 0.1359433
v -1.696687 -0.1461659 0.0002786907
v -1.837351 -0.0810173 -0.0673994
v -1.837393 -0.08097675 -0.1352317
v -1.837309 -0.0810578 0.0004329475
v -1.837267 -0.08109835 0.0682653
v -1.837225 -0.08113882 0.1360976
v -0.2053419 -0.2744122 -0.06863015
v -0.3623575 -0.2735546 -0.1364456
v -0.2053455 -0.2743627 -0.1364625
v -0.3623479 -0.273604 -0.06861334
v -0.2053383 -0.2744617 -0.0007978288
v -0.5193069 -0.2719763 -0.06858271
v -0.5193245 -0.2719266 -0.136415
v -0.6762426 -0.2693636 -0.1363694
v -0.3623382 -0.2736536 -0.0007809607
v -0.2053346 -0.2745111 0.06703458
v -0.3623286 -0.2737031 0.06705133
v -0.205331 -0.2745606 0.1348669
v -0.3623188 -0.2737526 0.1348836
v -0.5192893 -0.2720259 -0.0007503239
v -0.5192716 -0.2720755 0.06708197
v -0.519254 -0.272125 0.1349143
v -0.6762151 -0.2694134 -0.06853705
v -0.67616 -0.269513 0.06712768
v -0.6761324 -0.2695628 0.13496
v -0.6761875 -0.2694632 -0.0007046667
v -0.8329972 -0.2645611 -0.06845018
v -0.833037 -0.2645109 -0.1362825
v -0.8329575 -0.2646113 -0.0006178227
v -0.8329177 -0.2646615 0.06721447
v -0.8328779 -0.2647116 0.1350468
v 0.8308702 -0.2677242 -0.06844365
v 0.6740404 -0.2710572 -0.1363658
v 0.8309126 -0.2676743 -0.1362759
v 0.674011 -0.2711069 -0.06853347
v 0.8308278 -0.2677743 -0.0006113854
v 0.5170622 -0.2728927 -0.06858426
v 0.5170809 -0.2728431 -0.1364165
v 0.3600824 -0.2738995 -0.1364472
v 0.6739815 -0.2711566 -0.0007010904
v 0.8307853 -0.2678243 0.06722102
v 0.6739522 -0.2712063 0.0671312
v 0.830743 -0.2678743 0.1350533
v 0.6739227 -0.271256 0.1349636
v 0.5170436 -0.2729423 -0.0007518736
v 0.5170249 -0.2729919 0.06708053
v 0.5170063 -0.2730415 0.1349128
v 0.3600723 -0.273949 -0.06861483
v 0.3600523 -0.274048 0.06704984
v 0.3600423 -0.2740975 0.1348822
v 0.3600624 -0.2739985 -0.0007825104
v 0.2030466 -0.2744687 -0.06863018
v 0.2030501 -0.2744192 -0.1364625
v 0.2030431 -0.2745182 -0.0007978884
v 0.2030397 -0.2745677 0.0670344
v 0.2030362 -0.2746172 0.1348668
v 1.837291 -0.09935315 -0.06734254
v 1.696406 -0.1631602 -0.1353265
v 1.837331 -0.09931576 -0.1351748
v 1.696345 -0.1632077 -0.06749427
v 1.837251 -0.09939048 0.00048987
v 1.547066 -0.206404 -0.06768089
v 1.547142 -0.2063524 -0.1355132
v 1.393285 -0.2323247 -0.1357201
v 1.696283 -0.1632552 0.0003380569
v 1.837211 -0.09942785 0.06832216
v 1.696221 -0.1633027 0.06817041
v 1.837171 -0.09946521 0.1361545
v 1.696159 -0.1633502 0.1360026
v 1.54699 -0.2064556 0.0001514348
v 1.546914 -0.2065073 0.06798378
v 1.546838 -0.2065589 0.1358161
v 1.393207 -0.2323768 -0.06788778
v 1.393051 -0.2324809 0.06777678
v 1.392973 -0.2325329 0.1356091
v 1.393129 -0.2324288 -5.545293E-05
v 1.237736 -0.2483379 -0.0680749
v 1.237808 -0.2482865 -0.1359072
v 1.237664 -0.2483894 -0.0002426115
v 1.237592 -0.2484408 0.06758974
v 1.23752 -0.2484922 0.135422
v 2.364978 0.7413594 -0.06721123
v 2.324617 0.5900529 -0.1350436
v 2.364975 0.74136 -0.1350436
v 2.32462 0.5900521 -0.06721135
v 2.36498 0.7413587 0.0006211194
v 2.276478 0.4416668 -0.0672112
v 2.276476 0.4416677 -0.1350435
v 2.214703 0.2992105 -0.1350435
v 2.324622 0.5900514 0.0006210598
v 2.364983 0.741358 0.06845353
v 2.324625 0.5900507 0.06845341
v 2.364985 0.7413574 0.1362858
v 2.324628 0.5900499 0.1362858
v 2.276481 0.4416659 0.000621179
v 2.276483 0.441665 0.06845353
v 2.276486 0.4416641 0.1362859
v 2.214705 0.2992093 -0.06721111
v 2.21471 0.2992069 0.06845365
v 2.214712 0.2992057 0.136286
v 2.214707 0.2992081 0.0006212386
v 2.134227 0.1671102 -0.06721108
v 2.134226 0.1671146 -0.1350434
v 2.134227 0.1671059 0.0006212982
v 2.134227 0.1671016 0.06845365
v 2.134228 0.1670973 0.1362861
v -2.359961 0.7621848 0.06845305
v -2.32035 0.6106137 0.1362857
v -2.359961 0.7621848 0.1362854
v -2.320349 0.6106138 0.06845329
v -2.273572 0.4617171 0.1362855
v -2.320349 0.6106139 0.0006209406
v -2.35996 0.7621849 0.0006207618
v -2.35996 0.7621849 -0.06721165
v -2.273572 0.4617178 0.06845311
v -2.213376 0.3185264 0.1362824
v -2.213377 0.31853 0.06845001
v -2.133982 0.1858187 0.1362686
v -2.133987 0.1858279 0.0684363
v -2.273572 0.4617186 0.0006207022
v -2.213378 0.3185335 0.0006176027
v -2.133991 0.1858371 0.0006039533
v -2.320349 0.610614 -0.06721153
v -2.273572 0.4617193 -0.06721165
v -2.21338 0.3185371 -0.06721475
v -2.133996 0.1858463 -0.06722849
v -2.320349 0.6106141 -0.1350439
v -2.35996 0.762185 -0.135044
v -2.273571 0.46172 -0.135044
v -2.213381 0.3185406 -0.135047
v -2.134001 0.1858555 -0.1350608
vt 1 0.75
vt 0.75 1
vt 1 1
vt 0.75 0.75
vt 1 0.5
vt 0.5 0.75
vt 0.5 1
vt 0.25 1
vt 0.75 0.5
vt 1 0.25
vt 0.75 0.25
vt 1 0
vt 0.75 0
vt 0.5 0.5
vt 0.5 0.25
vt 0.5 0
vt 0.25 0.75
vt 0.25 0.25
vt 0.25 0
vt 0.25 0.5
vt 0 0.75
vt 0 1
vt 0 0.5
vt 0 0.25
vt 0 0
vt 1 0.75
vt 0.75 1
vt 1 1
vt 0.75 0.75
vt 1 0.5
vt 0.5 0.75
vt 0.5 1
vt 0.25 1
vt 0.75 0.5
vt 1 0.25
vt 0.75 0.25
vt 1 0
vt 0.75 0
vt 0.5 0.5
vt 0.5 0.25
vt 0.5 0
vt 0.25 0.75
vt 0.25 0.25
vt 0.25 0
vt 0.25 0.5
vt 0 0.75
vt 0 1
vt 0 0.5
vt 0 0.25
vt 0 0
vt 1 0.75
vt 0.75 1
vt 1 1
vt 0.75 0.75
vt 1 0.5
vt 0.5 0.75
vt 0.5 1
vt 0.25 1
vt 0.75 0.5
vt 1 0.25
vt 0.75 0.25
vt 1 0
vt 0.75 0
vt 0.5 0.5
vt 0.5 0.25
vt 0.5 0
vt 0.25 0.75
vt 0.25 0.25
vt 0.25 0
vt 0.25 0.5
vt 0 0.75
vt 0 1
vt 0 0.5
vt 0 0.25
vt 0 0
vt 1 0.75
vt 0.75 1
vt 1 1
vt 0.75 0.75
vt 1 0.5
vt 0.5 0.75
vt 0.5 1
vt 0.25 1
vt 0.75 0.5
vt 1 0.25
vt 0.75 0.25
vt 1 0
vt 0.75 0
vt 0.5 0.5
vt 0.5 0.25
vt 0.5 0
vt 0.25 0.75
vt 0.25 0.25
vt 0.25 0
vt 0.25 0.5
vt 0 0.75
vt 0 1
vt 0 0.5
vt 0 0.25
vt 0 0
vt 1 0.75
vt 0.75 1
vt 1 1
vt 0.75 0.75
vt 1 0.5
vt 0.5 0.75
vt 0.5 1
vt 0.25 1
vt 0.75 0.5
vt 1 0.25
vt 0.75 0.25
vt 1 0
vt 0.75 0
vt 0.5 0.5
vt 0.5 0.25
vt 0.5 0
vt 0.25 0.75
vt 0.25 0.25
vt 0.25 0
vt 0.25 0.5
vt 0 0.75
vt 0 1
vt 0 0.5
vt 0 0.25
vt 0 0
vt 0 0.25
vt 0.25 0
vt 0 0
vt 0.25 0.25
vt 0.5 0
vt 0.25 0.5
vt 0 0.5
vt 0 0.75
vt 0.5 0.25
vt 0.75 0
vt 0.75 0.25
vt 1 0
vt 1 0.25
vt 0.5 0.5
vt 0.75 0.5
vt 1 0.5
vt 0.25 0.75
vt 0.5 0.75
vt 0.75 0.75
vt 1 0.75
vt 0.25 1
vt 0 1
vt 0.5 1
vt 0.75 1
vt 1 1
vn 0.1239671 0.9922861 0.0006103747
vn 0.1528415 0.9882506 0.0005798697
vn 0.1239671 0.9922861 0.0006103747
vn 0.1528415 0.9882506 0.0005798697
vn 0.1239671 0.9922861 0.0006103747
vn 0.2362184 0.9716998 0.0004883067
vn 0.2362184 0.9716998 0.0004883067
vn 0.355975 0.9344954 0.0003357103
vn 0.1528415 0.9882506 0.0005798697
vn 0.1239671 0.9922861 0.0006103747
vn 0.1528415 0.9882506 0.0005798697
vn 0.1239671 0.9922861 0.0006103747
vn 0.1528415 0.9882506 0.0005798697
vn 0.2362184 0.9716998 0.0004883067
vn 0.2362184 0.9716998 0.0004883067
vn 0.2362184 0.9716998 0.0004883067
vn 0.355975 0.9344954 0.0003357103
vn 0.355975 0.9344954 0.0003357103
vn 0.355975 0.9344954 0.0003357103
vn 0.355975 0.9344954 0.0003357103
vn 0.4201552 0.9074522 0.0002746711
vn 0.4201552 0.9074522 0.0002746711
vn 0.4201552 0.9074522 0.0002746711
vn 0.4201552 0.9074522 0.0002746711
vn 0.4201552 0.9074522 0.0002746711
vn 0.005127197 0.9999866 0.0007019378
vn 0.007751703 0.9999697 0.000701926
vn 0.005127197 0.9999866 0.0007019378
vn 0.007751703 0.9999697 0.000701926
vn 0.005127197 0.9999866 0.0007019378
vn 0.01333662 0.9999108 0.0007019275
vn 0.01333662 0.9999108 0.0007019275
vn 0.02362194 0.9997206 0.0007019439
vn 0.007751703 0.9999697 0.000701926
vn 0.005127197 0.9999866 0.0007019378
vn 0.007751703 0.9999697 0.000701926
vn 0.005127197 0.9999866 0.0007019378
vn 0.007751703 0.9999697 0.000701926
vn 0.01333662 0.9999108 0.0007019275
vn 0.01333662 0.9999108 0.0007019275
vn 0.01333662 0.9999108 0.0007019275
vn 0.02362194 0.9997206 0.0007019439
vn 0.02362194 0.9997206 0.0007019439
vn 0.02362194 0.9997206 0.0007019439
vn 0.02362194 0.9997206 0.0007019439
vn 0.03091556 0.9995217 0.0007019328
vn 0.03091556 0.9995217 0.0007019328
vn 0.03091556 0.9995217 0.0007019328
vn 0.03091556 0.9995217 0.0007019328
vn 0.03091556 0.9995217 0.0007019328
vn -0.02154632 0.9997676 0.000701934
vn -0.01644976 0.9998645 0.0007019377
vn -0.02154632 0.9997676 0.000701934
vn -0.01644976 0.9998645 0.0007019377
vn -0.02154632 0.9997676 0.000701934
vn -0.009033659 0.999959 0.0007019398
vn -0.009033659 0.999959 0.0007019398
vn -0.005005124 0.9999872 0.0007019382
vn -0.01644976 0.9998645 0.0007019377
vn -0.02154632 0.9997676 0.000701934
vn -0.01644976 0.9998645 0.0007019377
vn -0.02154632 0.9997676 0.000701934
vn -0.01644976 0.9998645 0.0007019377
vn -0.009033659 0.999959 0.0007019398
vn -0.009033659 0.999959 0.0007019398
vn -0.009033659 0.999959 0.0007019398
vn -0.005005124 0.9999872 0.0007019382
vn -0.005005124 0.9999872 0.0007019382
vn -0.005005124 0.9999872 0.0007019382
vn -0.005005124 0.9999872 0.0007019382
vn -0.003296081 0.9999944 0.0007019432
vn -0.003296081 0.9999944 0.0007019432
vn -0.003296081 0.9999944 0.0007019432
vn -0.003296081 0.9999944 0.0007019432
vn -0.003296081 0.9999944 0.0007019432
vn -0.4126552 0.9108873 0.0002441566
vn -0.3462088 0.9381574 0.0003357102
vn -0.4126552 0.9108873 0.0002441566
vn -0.3462088 0.9381574 0.0003357102
vn -0.4126552 0.9108873 0.0002441566
vn -0.222572 0.9749161 0.0004882973
vn -0.222572 0.9749161 0.0004882973
vn -0.1343464 0.9909343 0.0005798686
vn -0.3462088 0.9381574 0.0003357102
vn -0.4126552 0.9108873 0.0002441566
vn -0.3462088 0.9381574 0.0003357102
vn -0.4126552 0.9108873 0.0002441566
vn -0.3462088 0.9381574 0.0003357102
vn -0.222572 0.9749161 0.0004882973
vn -0.222572 0.9749161 0.0004882973
vn -0.222572 0.9749161 0.0004882973
vn -0.1343464 0.9909343 0.0005798686
vn -0.1343464 0.9909343 0.0005798686
vn -0.1343464 0.9909343 0.0005798686
vn -0.1343464 0.9909343 0.0005798686
vn -0.1021171 0.9947721 0.0006409024
vn -0.1021171 0.9947721 0.0006409024
vn -0.1021171 0.9947721 0.0006409024
vn -0.1021171 0.9947721 0.0006409024
vn -0.1021171 0.9947721 0.0006409024
vn -0.9662248 0.2577006 3.051878E-05
vn -0.9590456 0.2832517 3.051952E-05
vn -0.9662248 0.2577006 3.051878E-05
vn -0.9590456 0.2832517 3.051952E-05
vn -0.9662248 0.2577006 3.051878E-05
vn -0.9353864 0.3536273 3.051931E-05
vn -0.9353864 0.3536273 3.051931E-05
vn -0.8878446 0.4601434 3.051956E-05
vn -0.9590456 0.2832517 3.051952E-05
vn -0.9662248 0.2577006 3.051878E-05
vn -0.9590456 0.2832517 3.051952E-05
vn -0.9662248 0.2577006 3.051878E-05
vn -0.9590456 0.2832517 3.051952E-05
vn -0.9353864 0.3536273 3.051931E-05
vn -0.9353864 0.3536273 3.051931E-05
vn -0.9353864 0.3536273 3.051931E-05
vn -0.8878446 0.4601434 3.051956E-05
vn -0.8878446 0.4601434 3.051956E-05
vn -0.8878446 0.4601434 3.051956E-05
vn -0.8878446 0.4601434 3.051956E-05
vn -0.8540022 0.5202693 3.05197E-05
vn -0.8540022 0.5202693 3.05197E-05
vn -0.8540022 0.5202693 3.05197E-05
vn -0.8539887 0.5202916 3.051922E-05
vn -0.8539887 0.5202916 3.051922E-05
vn 0.967506 0.252848 0
vn 0.9610561 0.2763532 0
vn 0.967506 0.252848 0
vn 0.9610561 0.2763532 0
vn 0.9389674 0.3440062 0
vn 0.9610561 0.2763532 0
vn 0.967506 0.252848 0
vn 0.967506 0.252848 0
vn 0.9389674 0.3440062 0
vn 0.8922253 0.4515908 0
vn 0.8922253 0.4515908 0
vn 0.8581492 0.5134002 0
vn 0.8581573 0.5133868 0
vn 0.9389773 0.3439794 0
vn 0.8922253 0.4515908 0
vn 0.8581573 0.5133868 0
vn 0.9610561 0.2763532 0
vn 0.9389773 0.3439794 0
vn 0.8922253 0.4515908 0
vn 0.8581573 0.5133868 0
vn 0.9610561 0.2763532 0
vn 0.967506 0.252848 0
vn 0.9389773 0.3439794 0
vn 0.8922253 0.4515908 0
vn 0.8581573 0.5133868 0
g board_line_0
f 3/3/3 2/2/2 1/1/1
f 2/2/2 4/4/4 1/1/1
f 1/1/1 4/4/4 5/5/5
f 6/6/6 4/4/4 2/2/2
f 7/7/7 6/6/6 2/2/2
f 6/6/6 7/7/7 8/8/8
f 4/4/4 9/9/9 5/5/5
f 9/9/9 4/4/4 6/6/6
f 5/5/5 9/9/9 10/10/10
f 9/9/9 11/11/11 10/10/10
f 12/12/12 10/10/10 11/11/11
f 13/13/13 12/12/12 11/11/11
f 14/14/14 9/9/9 6/6/6
f 9/9/9 14/14/14 11/11/11
f 13/13/13 11/11/11 15/15/15
f 14/14/14 15/15/15 11/11/11
f 16/16/16 13/13/13 15/15/15
f 17/17/17 6/6/6 8/8/8
f 14/14/14 6/6/6 17/17/17
f 16/16/16 15/15/15 18/18/18
f 19/19/19 16/16/16 18/18/18
f 15/15/15 14/14/14 20/20/20
f 20/20/20 14/14/14 17/17/17
f 18/18/18 15/15/15 20/20/20
f 21/21/21 17/17/17 8/8/8
f 20/20/20 17/17/17 21/21/21
f 22/22/22 21/21/21 8/8/8
f 23/23/23 20/20/20 21/21/21
f 23/23/23 24/24/24 20/20/20
f 24/24/24 18/18/18 20/20/20
f 19/19/19 18/18/18 24/24/24
f 25/25/25 19/19/19 24/24/24
f 28/28/28 27/27/27 26/26/26
f 27/27/27 29/29/29 26/26/26
f 26/26/26 29/29/29 30/30/30
f 31/31/31 29/29/29 27/27/27
f 32/32/32 31/31/31 27/27/27
f 31/31/31 32/32/32 33/33/33
f 29/29/29 34/34/34 30/30/30
f 34/34/34 29/29/29 31/31/31
f 30/30/30 34/34/34 35/35/35
f 34/34/34 36/36/36 35/35/35
f 37/37/37 35/35/35 36/36/36
f 38/38/38 37/37/37 36/36/36
f 39/39/39 34/34/34 31/31/31
f 34/34/34 39/39/39 36/36/36
f 38/38/38 36/36/36 40/40/40
f 39/39/39 40/40/40 36/36/36
f 41/41/41 38/38/38 40/40/40
f 42/42/42 31/31/31 33/33/33
f 39/39/39 31/31/31 42/42/42
f 41/41/41 40/40/40 43/43/43
f 44/44/44 41/41/41 43/43/43
f 40/40/40 39/39/39 45/45/45
f 45/45/45 39/39/39 42/42/42
f 43/43/43 40/40/40 45/45/45
f 46/46/46 42/42/42 33/33/33
f 45/45/45 42/42/42 46/46/46
f 47/47/47 46/46/46 33/33/33
f 48/48/48 45/45/45 46/46/46
f 48/48/48 49/49/49 45/45/45
f 49/49/49 43/43/43 45/45/45
f 44/44/44 43/43/43 49/49/49
f 50/50/50 44/44/44 49/49/49
f 53/53/53 52/52/52 51/51/51
f 52/52/52 54/54/54 51/51/51
f 51/51/51 54/54/54 55/55/55
f 56/56/56 54/54/54 52/52/52
f 57/57/57 56/56/56 52/52/52
f 56/56/56 57/57/57 58/58/58
f 54/54/54 59/59/59 55/55/55
f 59/59/59 54/54/54 56/56/56
f 55/55/55 59/59/59 60/60/60
f 59/59/59 61/61/61 60/60/60
f 62/62/62 60/60/60 61/61/61
f 63/63/63 62/62/62 61/61/61
f 64/64/64 59/59/59 56/56/56
f 59/59/59 64/64/64 61/61/61
f 63/63/63 61/61/61 65/65/65
f 64/64/64 65/65/65 61/61/61
f 66/66/66 63/63/63 65/65/65
f 67/67/67 56/56/56 58/58/58
f 64/64/64 56/56/56 67/67/67
f 66/66/66 65/65/65 68/68/68
f 69/69/69 66/66/66 68/68/68
f 65/65/65 64/64/64 70/70/70
f 70/70/70 64/64/64 67/67/67
f 68/68/68 65/65/65 70/70/70
f 71/71/71 67/67/67 58/58/58
f 70/70/70 67/67/67 71/71/71
f 72/72/72 71/71/71 58/58/58
f 73/73/73 70/70/70 71/71/71
f 73/73/73 74/74/74 70/70/70
f 74/74/74 68/68/68 70/70/70
f 69/69/69 68/68/68 74/74/74
f 75/75/75 69/69/69 74/74/74
f 78/78/78 77/77/77 76/76/76
f 77/77/77 79/79/79 76/76/76
f 76/76/76 79/79/79 80/80/80
f 81/81/81 79/79/79 77/77/77
f 82/82/82 81/81/81 77/77/77
f 81/81/81 82/82/82 83/83/83
f 79/79/79 84/84/84 80/80/80
f 84/84/84 79/79/79 81/81/81
f 80/80/80 84/84/84 85/85/85
f 84/84/84 86/86/86 85/85/85
f 87/87/87 85/85/85 86/86/86
f 88/88/88 87/87/87 86/86/86
f 89/89/89 84/84/84 81/81/81
f 84/84/84 89/89/89 86/86/86
f 88/88/88 86/86/86 90/90/90
f 89/89/89 90/90/90 86/86/86
f 91/91/91 88/88/88 90/90/90
f 92/92/92 81/81/81 83/83/83
f 89/89/89 81/81/81 92/92/92
f 91/91/91 90/90/90 93/93/93
f 94/94/94 91/91/91 93/93/93
f 90/90/90 89/89/89 95/95/95
f 95/95/95 89/89/89 92/92/92
f 93/93/93 90/90/90 95/95/95
f 96/96/96 92/92/92 83/83/83
f 95/95/95 92/92/92 96/96/96
f 97/97/97 96/96/96 83/83/83
f 98/98/98 95/95/95 96/96/96
f 98/98/98 99/99/99 95/95/95
f 99/99/99 93/93/93 95/95/95
f 94/94/94 93/93/93 99/99/99
f 100/100/100 94/94/94 99/99/99
f 103/103/103 102/102/102 101/101/101
f 102/102/102 104/104/104 101/101/101
f 101/101/101 104/104/104 105/105/105
f 106/106/106 104/104/104 102/102/102
f 107/107/107 106/106/106 102/102/102
f 106/106/106 107/107/107 108/108/108
f 104/104/104 109/109/109 105/105/105
f 109/109/109 104/104/104 106/106/106
f 105/105/105 109/109/109 110/110/110
f 109/109/109 111/111/111 110/110/110
f 112/112/112 110/110/110 111/111/111
f 113/113/113 112/112/112 111/111/111
f 114/114/114 109/109/109 106/106/106
f 109/109/109 114/114/114 111/111/111
f 113/113/113 111/111/111 115/115/115
f 114/114/114 115/115/115 111/111/111
f 116/116/116 113/113/113 115/115/115
f 117/117/117 106/106/106 108/108/108
f 114/114/114 106/106/106 117/117/117
f 116/116/116 115/115/115 118/118/118
f 119/119/119 116/116/116 118/118/118
f 115/115/115 114/114/114 120/120/120
f 120/120/120 114/114/114 117/117/117
f 118/118/118 115/115/115 120/120/120
f 121/121/121 117/117/117 108/108/108
f 120/120/120 117/117/117 121/121/121
f 122/122/122 121/121/121 108/108/108
f 123/123/123 120/120/120 121/121/121
f 123/123/123 124/124/124 120/120/120
f 124/124/124 118/118/118 120/120/120
f 119/119/119 118/118/118 124/124/124
f 125/125/125 119/119/119 124/124/124
f 128/128/128 127/127/127 126/126/126
f 127/127/127 129/129/129 126/126/126
f 127/127/127 130/130/130 129/129/129
f 126/126/126 129/129/129 131/131/131
f 132/132/132 126/126/126 131/131/131
f 132/132/132 131/131/131 133/133/133
f 130/130/130 134/134/134 129/129/129
f 129/129/129 134/134/134 131/131/131
f 130/130/130 135/135/135 134/134/134
f 135/135/135 136/136/136 134/134/134
f 135/135/135 137/137/137 136/136/136
f 137/137/137 138/138/138 136/136/136
f 134/134/134 139/139/139 131/131/131
f 139/139/139 134/134/134 136/136/136
f 140/140/140 136/136/136 138/138/138
f 140/140/140 139/139/139 136/136/136
f 141/141/141 140/140/140 138/138/138
f 131/131/131 142/142/142 133/133/133
f 131/131/131 139/139/139 142/142/142
f 139/139/139 140/140/140 143/143/143
f 139/139/139 143/143/143 142/142/142
f 144/144/144 140/140/140 141/141/141
f 140/140/140 144/144/144 143/143/143
f 145/145/145 144/144/144 141/141/141
f 133/133/133 142/142/142 146/146/146
f 142/142/142 143/143/143 146/146/146
f 147/147/147 133/133/133 146/146/146
f 143/143/143 148/148/148 146/146/146
f 148/148/148 143/143/143 149/149/149
f 143/143/143 144/144/144 149/149/149
f 149/149/149 144/144/144 145/145/145
f 150/150/150 149/149/149 145/145/145
